<mxfile host="app.diagrams.net" modified="2024-03-27T19:10:48.726Z" agent="Mozilla/5.0 (Windows NT 10.0; Win64; x64) AppleWebKit/537.36 (KHTML, like Gecko) Chrome/123.0.0.0 Safari/537.36" version="24.1.0" etag="InUw9A9UD0E9Fjz6nV1a" type="github">
  <diagram name="Страница — 1" id="N8ZJfRnTh7rPEQ39Hri5">
    <mxGraphModel>
      <root>
        <mxCell id="0" />
        <mxCell id="1" parent="0" />
      </root>
    </mxGraphModel>
  </diagram>
</mxfile>
